<?xml version="1.0" standalone="no"?>
<!DOCTYPE svg PUBLIC "-//W3C//DTD SVG 20010904//EN"
 "http://www.w3.org/TR/2001/REC-SVG-20010904/DTD/svg10.dtd">
<svg version="1.0" xmlns="http://www.w3.org/2000/svg"
 width="252.000000pt" height="252.000000pt" viewBox="0 0 252.000000 252.000000"
 preserveAspectRatio="xMidYMid meet">
<metadata>
Created by potrace 1.14, written by Peter Selinger 2001-2017
</metadata>
<g transform="translate(0.000000,252.000000) scale(0.100000,-0.100000)"
fill="#000000" stroke="none">
<path d="M1177 2514 c-1 -1 -31 -5 -67 -8 -82 -9 -170 -29 -257 -59 -513 -180
-850 -655 -847 -1197 1 -87 10 -197 19 -221 2 -8 7 -27 9 -43 10 -58 61 -203
98 -280 184 -376 543 -635 963 -695 110 -15 325 -7 430 17 265 61 460 171 648
366 203 209 322 481 343 782 l6 81 -315 0 -314 1 -6 -64 c-23 -243 -190 -449
-434 -535 -78 -28 -243 -34 -333 -13 -239 56 -436 261 -476 495 -9 54 -10 181
-1 231 19 106 81 229 157 312 51 54 162 136 187 136 7 0 13 3 13 8 0 16 178
60 233 57 18 -1 27 3 28 14 6 123 2 604 -6 609 -9 6 -72 11 -78 6z"/>
<path d="M1153 1636 c-211 -68 -328 -285 -265 -492 48 -157 192 -270 351 -278
53 -2 117 7 151 21 8 3 21 7 28 9 52 10 153 108 192 184 108 213 4 473 -220
548 -66 23 -180 26 -237 8z"/>
</g>
</svg>
